<svg xmlns="http://www.w3.org/2000/svg" xmlns:xlink="http://www.w3.org/1999/xlink" zoomAndPan="magnify" preserveAspectRatio="xMidYMid meet" version="1.0" viewBox="77.56 158.08 183.01 58.84"><defs><g/><clipPath id="4417813779"><path d="M 110 158.078125 L 123 158.078125 L 123 168 L 110 168 Z M 110 158.078125 " clip-rule="nonzero"/></clipPath><clipPath id="11885fd7a3"><path d="M 100 207.789062 L 112.253906 207.789062 L 112.253906 216.578125 L 100 216.578125 Z M 100 207.789062 " clip-rule="nonzero"/></clipPath></defs><path fill="#3a5a40" d="M 131.25 166.070312 L 117.441406 172.730469 C 114.089844 174.347656 112.304688 177.867188 112.695312 181.371094 L 133.734375 171.21875 C 135.140625 170.542969 136.835938 171.132812 137.511719 172.539062 L 139.390625 176.433594 C 140.070312 177.835938 139.476562 179.53125 138.070312 180.210938 L 117.03125 190.359375 C 119.53125 192.84375 123.394531 193.640625 126.75 192.023438 L 140.554688 185.363281 C 144.808594 183.3125 146.59375 178.199219 144.542969 173.949219 L 142.664062 170.054688 C 140.613281 165.800781 135.503906 164.019531 131.25 166.070312 Z M 85.441406 202.457031 L 83.5625 198.566406 C 82.882812 197.160156 83.476562 195.464844 84.882812 194.785156 L 105.921875 184.636719 C 103.421875 182.152344 99.558594 181.359375 96.203125 182.976562 L 82.398438 189.636719 C 78.144531 191.6875 76.359375 196.796875 78.410156 201.050781 L 80.289062 204.941406 C 82.339844 209.195312 87.453125 210.980469 91.703125 208.929688 L 105.511719 202.269531 C 108.863281 200.648438 110.648438 197.128906 110.257812 193.628906 L 89.21875 203.777344 C 87.8125 204.457031 86.117188 203.863281 85.441406 202.457031 " fill-opacity="1" fill-rule="nonzero"/><path fill="#3a5a40" d="M 126.191406 181.25 C 126.464844 181.824219 126.503906 182.480469 126.292969 183.078125 C 126.085938 183.675781 125.648438 184.164062 125.078125 184.441406 L 100.617188 196.238281 C 100.046875 196.515625 99.390625 196.550781 98.792969 196.34375 C 98.195312 196.136719 97.703125 195.699219 97.429688 195.125 L 96.761719 193.746094 C 96.191406 192.558594 96.6875 191.128906 97.875 190.558594 L 122.335938 178.757812 C 123.523438 178.183594 124.953125 178.683594 125.523438 179.871094 L 126.191406 181.25 " fill-opacity="1" fill-rule="nonzero"/><path fill="#3a5a40" d="M 87.921875 183.917969 C 87.753906 184 87.558594 184.03125 87.359375 183.992188 C 86.859375 183.902344 86.53125 183.425781 86.621094 182.925781 C 88.085938 175.003906 93.269531 168.195312 100.484375 164.714844 C 105.292969 162.394531 110.605469 161.664062 115.851562 162.601562 C 116.351562 162.691406 116.683594 163.167969 116.59375 163.664062 C 116.503906 164.160156 116.023438 164.492188 115.527344 164.40625 C 110.667969 163.539062 105.738281 164.214844 101.28125 166.367188 C 94.589844 169.59375 89.785156 175.910156 88.425781 183.257812 C 88.371094 183.558594 88.175781 183.796875 87.921875 183.917969 " fill-opacity="1" fill-rule="nonzero"/><g clip-path="url(#4417813779)"><path fill="#3a5a40" d="M 113.625 158.078125 L 114.117188 163.21875 L 110.757812 167.144531 L 122.9375 166.007812 L 113.625 158.078125 " fill-opacity="1" fill-rule="nonzero"/></g><path fill="#3a5a40" d="M 122.46875 210.28125 C 117.660156 212.601562 112.347656 213.332031 107.101562 212.398438 C 106.605469 212.308594 106.273438 211.832031 106.359375 211.332031 C 106.449219 210.835938 106.925781 210.503906 107.425781 210.59375 C 112.289062 211.460938 117.214844 210.78125 121.671875 208.632812 C 128.363281 205.402344 133.167969 199.089844 134.527344 191.738281 C 134.621094 191.238281 135.097656 190.914062 135.597656 191.003906 C 136.09375 191.097656 136.421875 191.578125 136.332031 192.074219 C 134.867188 199.996094 129.683594 206.800781 122.46875 210.28125 " fill-opacity="1" fill-rule="nonzero"/><g clip-path="url(#11885fd7a3)"><path fill="#3a5a40" d="M 109.328125 216.917969 L 108.835938 211.777344 L 112.195312 207.851562 L 100.015625 208.988281 L 109.328125 216.917969 " fill-opacity="1" fill-rule="nonzero"/></g><g fill="#3a5a40" fill-opacity="1"><g transform="translate(150.590078, 197.999987)"><g><path d="M 11.46875 0 L 6.4375 -16.390625 L 6.3125 -16.390625 C 6.5 -13.054688 6.59375 -10.832031 6.59375 -9.71875 L 6.59375 0 L 2.625 0 L 2.625 -20.890625 L 8.65625 -20.890625 L 13.609375 -4.921875 L 13.6875 -4.921875 L 18.9375 -20.890625 L 24.96875 -20.890625 L 24.96875 0 L 20.828125 0 L 20.828125 -9.890625 C 20.828125 -10.359375 20.832031 -10.894531 20.84375 -11.5 C 20.863281 -12.113281 20.929688 -13.734375 21.046875 -16.359375 L 20.921875 -16.359375 L 15.53125 0 Z M 11.46875 0 "/></g></g></g><g fill="#3a5a40" fill-opacity="1"><g transform="translate(178.180111, 197.999987)"><g><path d="M 14.65625 0 L 2.625 0 L 2.625 -20.890625 L 14.65625 -20.890625 L 14.65625 -17.265625 L 7.0625 -17.265625 L 7.0625 -12.671875 L 14.125 -12.671875 L 14.125 -9.046875 L 7.0625 -9.046875 L 7.0625 -3.65625 L 14.65625 -3.65625 Z M 14.65625 0 "/></g></g></g><g fill="#3a5a40" fill-opacity="1"><g transform="translate(194.568393, 197.999987)"><g><path d="M 7.0625 -11.625 L 8.484375 -11.625 C 9.890625 -11.625 10.925781 -11.851562 11.59375 -12.3125 C 12.257812 -12.78125 12.59375 -13.515625 12.59375 -14.515625 C 12.59375 -15.503906 12.25 -16.207031 11.5625 -16.625 C 10.882812 -17.050781 9.832031 -17.265625 8.40625 -17.265625 L 7.0625 -17.265625 Z M 7.0625 -8.015625 L 7.0625 0 L 2.625 0 L 2.625 -20.890625 L 8.71875 -20.890625 C 11.550781 -20.890625 13.648438 -20.375 15.015625 -19.34375 C 16.378906 -18.3125 17.0625 -16.742188 17.0625 -14.640625 C 17.0625 -13.410156 16.722656 -12.316406 16.046875 -11.359375 C 15.367188 -10.398438 14.410156 -9.648438 13.171875 -9.109375 C 16.316406 -4.410156 18.363281 -1.375 19.3125 0 L 14.40625 0 L 9.421875 -8.015625 Z M 7.0625 -8.015625 "/></g></g></g><g fill="#3a5a40" fill-opacity="1"><g transform="translate(213.885698, 197.999987)"><g><path d="M 15.421875 0 L 13.90625 -4.96875 L 6.28125 -4.96875 L 4.765625 0 L 0 0 L 7.375 -20.984375 L 12.796875 -20.984375 L 20.1875 0 Z M 12.84375 -8.6875 C 11.445312 -13.195312 10.660156 -15.742188 10.484375 -16.328125 C 10.304688 -16.921875 10.179688 -17.390625 10.109375 -17.734375 C 9.785156 -16.515625 8.882812 -13.5 7.40625 -8.6875 Z M 12.84375 -8.6875 "/></g></g></g><g fill="#3a5a40" fill-opacity="1"><g transform="translate(234.074574, 197.999987)"><g><path d="M 19.4375 0 L 14.40625 0 L 8.9375 -8.796875 L 7.0625 -7.453125 L 7.0625 0 L 2.625 0 L 2.625 -20.890625 L 7.0625 -20.890625 L 7.0625 -11.328125 L 8.796875 -13.796875 L 14.46875 -20.890625 L 19.375 -20.890625 L 12.09375 -11.640625 Z M 19.4375 0 "/></g></g></g><g fill="#3a5a40" fill-opacity="1"><g transform="translate(253.506183, 197.999987)"><g><path d="M 2.625 0 L 2.625 -20.890625 L 7.0625 -20.890625 L 7.0625 0 Z M 2.625 0 "/></g></g></g></svg>