<?xml version="1.0" encoding="utf-8"?>
<!-- Uploaded to: SVG Repo, www.svgrepo.com, Generator: SVG Repo Mixer Tools -->
<svg width="800px" height="800px" viewBox="0 0 1024 1024" class="icon"  version="1.1" xmlns="http://www.w3.org/2000/svg"><path d="M763.036808 984.419144h-30.914052c-14.130311 0-25.575224-11.444913-25.575224-25.575224v-328.194062c0-14.130311 11.444913-25.575224 25.575224-25.575224h87.403328c14.098342 0 25.575224 11.444913 25.575224 25.575224v328.194062c0 14.130311-11.476882 25.575224-25.575224 25.575224h-56.489276z" fill="#5FCEFF" /><path d="M819.526084 1006.797465h-87.403328c-26.441585 0-47.953545-21.51196-47.953545-47.953545v-328.194062c0-26.441585 21.51196-47.953545 47.953545-47.953545h87.403328c26.441585 0 47.953545 21.51196 47.953545 47.953545v328.194062c0 26.441585-21.51196 47.953545-47.953545 47.953545z m-87.403328-379.34451a3.196903 3.196903 0 0 0-3.196903 3.196903v328.194062a3.196903 3.196903 0 0 0 3.196903 3.196903h87.403328a3.196903 3.196903 0 0 0 3.196903-3.196903v-328.194062a3.196903 3.196903 0 0 0-3.196903-3.196903h-87.403328z" fill="#4F46A3" /><path d="M775.82442 627.452955a22.378321 22.378321 0 0 1-22.378321-22.378321V194.304567a22.378321 22.378321 0 1 1 44.756642 0v410.770067a22.378321 22.378321 0 0 1-22.378321 22.378321z" fill="#4F46A3" /><path d="M798.202741 216.682888h-44.756642a22.378321 22.378321 0 0 1-22.378321-22.378321v-149.774905a22.378321 22.378321 0 0 1 22.378321-22.378321h44.756642a22.378321 22.378321 0 0 1 22.378321 22.378321v149.774905a22.378321 22.378321 0 0 1-22.378321 22.378321z" fill="#4F46A3" /><path d="M491.124223 83.710905a175.366114 175.366114 0 0 1 60.133746 132.351784c0 96.802223-78.739721 175.541944-175.573913 175.541944-96.770254 0-175.509975-78.739721-175.509975-175.541944 0-51.470138 22.346352-99.391714 60.165715-132.351784v145.778777c0 12.372015 10.006306 22.378321 22.378321 22.378321h186.027785c12.340046 0 22.378321-10.006306 22.378321-22.378321v-145.778777z m-93.061846 251.724142v-12.787612c0-12.340046-10.006306-22.378321-22.378321-22.378321-12.340046 0-22.378321 10.038275-22.378321 22.378321v12.787612c0 12.372015 10.038275 22.378321 22.378321 22.378321 12.372015 0 22.378321-10.006306 22.378321-22.378321z" fill="#FF4893" /><path d="M404.488152 434.443133l11.476882 527.584902h-80.498018l11.476882-527.584902c9.430864 1.214823 19.021573 1.918142 28.740158 1.918142 9.782523 0 19.373232-0.703319 28.804096-1.918142z" fill="#5FCEFF" /><path d="M479.263713 21.531142c72.026225 38.426774 116.750898 112.978552 116.750898 194.531547 0 95.779214-61.444476 177.460086-146.9936 207.734757l12.1802 560.129375a22.336761 22.336761 0 0 1-22.378321 22.857856h-126.245699c-6.010178 0-11.764603-2.429646-15.984515-6.713496a22.518985 22.518985 0 0 1-6.361837-16.14436l12.1802-560.129375c-85.549124-30.274671-146.9936-111.923574-146.9936-207.734757 0-81.552996 44.724673-156.104774 116.750898-194.531547a22.378321 22.378321 0 0 1 30.274671 9.20708c1.950111 3.644469 2.749337 7.608629 2.589492 11.444913 0.031969 0.255752 0.063938 0.511504 0.063938 0.767257v164.160969h141.271143v-164.160969c0-0.223783 0-0.479535 0.031969-0.735288-0.191814-3.868253 0.639381-7.832412 2.589492-11.476882a22.378321 22.378321 0 0 1 30.274671-9.20708z m71.994256 194.531547c0-51.470138-22.346352-99.391714-60.133746-132.351784v145.778777c0 12.372015-10.038275 22.378321-22.378321 22.378321h-186.027785c-12.372015 0-22.378321-10.006306-22.378321-22.378321v-145.778777a175.286192 175.286192 0 0 0-60.165715 132.351784c0 96.802223 78.739721 175.541944 175.509975 175.541944 96.834192 0 175.573913-78.739721 175.573913-175.541944z m-135.292935 745.965346l-11.476882-527.584902c-9.430864 1.214823-19.021573 1.918142-28.804096 1.918142-9.718585 0-19.309294-0.703319-28.740158-1.918142l-11.476882 527.584902h80.498018z" fill="#4F46A3" /><path d="M398.062377 322.647435v12.787612c0 12.372015-10.006306 22.378321-22.378321 22.378321-12.340046 0-22.378321-10.006306-22.378321-22.378321v-12.787612c0-12.340046 10.038275-22.378321 22.378321-22.378321 12.372015 0 22.378321 10.038275 22.378321 22.378321z" fill="#4F46A3" /><path d="M763.036808 1006.797465a22.378321 22.378321 0 0 1-22.378321-22.378321v-271.736755a22.378321 22.378321 0 1 1 44.756642 0v271.736755a22.378321 22.378321 0 0 1-22.378321 22.378321z" fill="#4F46A3" /></svg>