<svg xmlns="http://www.w3.org/2000/svg" xmlns:xlink="http://www.w3.org/1999/xlink" width="500" zoomAndPan="magnify" viewBox="0 0 375 374.999991" height="500" preserveAspectRatio="xMidYMid meet" version="1.0"><defs><clipPath id="095e87ae2c"><path d="M 183 30.46875 L 249 30.46875 L 249 79 L 183 79 Z M 183 30.46875 " clip-rule="nonzero"/></clipPath><clipPath id="0c138d9e2c"><path d="M 126 296 L 191.636719 296 L 191.636719 344.53125 L 126 344.53125 Z M 126 296 " clip-rule="nonzero"/></clipPath></defs><path fill="#588157" d="M 293.039062 73.117188 L 219.347656 108.664062 C 201.445312 117.304688 191.929688 136.09375 194 154.785156 L 306.304688 100.609375 C 313.800781 96.992188 322.851562 100.152344 326.46875 107.652344 L 336.496094 128.433594 C 340.113281 135.933594 336.953125 144.984375 329.453125 148.601562 L 217.148438 202.773438 C 230.492188 216.035156 251.121094 220.28125 269.023438 211.648438 L 342.714844 176.097656 C 365.414062 165.148438 374.9375 137.871094 363.988281 115.171875 L 353.960938 94.390625 C 343.011719 71.691406 315.738281 62.167969 293.039062 73.117188 Z M 48.527344 267.351562 L 38.5 246.566406 C 34.882812 239.066406 38.042969 230.015625 45.546875 226.398438 L 157.847656 172.222656 C 144.507812 158.96875 123.878906 154.722656 105.976562 163.355469 L 32.285156 198.90625 C 9.585938 209.855469 0.0625 237.128906 11.011719 259.828125 L 21.039062 280.613281 C 31.988281 303.3125 59.261719 312.835938 81.960938 301.886719 L 155.652344 266.335938 C 173.554688 257.699219 183.070312 238.910156 181 220.214844 L 68.699219 274.386719 C 61.195312 278.007812 52.144531 274.847656 48.527344 267.351562 " fill-opacity="1" fill-rule="nonzero"/><path fill="#588157" d="M 266.039062 154.15625 C 267.507812 157.203125 267.707031 160.707031 266.59375 163.894531 C 265.480469 167.089844 263.140625 169.703125 260.097656 171.171875 L 129.535156 234.160156 C 126.488281 235.628906 122.984375 235.824219 119.792969 234.710938 C 116.601562 233.597656 113.984375 231.261719 112.515625 228.214844 L 108.960938 220.84375 C 105.902344 214.503906 108.5625 206.886719 114.902344 203.828125 L 245.464844 140.84375 C 251.804688 137.785156 259.425781 140.445312 262.480469 146.785156 L 266.039062 154.15625 " fill-opacity="1" fill-rule="nonzero"/><path fill="#588157" d="M 61.773438 168.390625 C 60.871094 168.824219 59.824219 168.988281 58.765625 168.792969 C 56.105469 168.300781 54.351562 165.75 54.839844 163.085938 C 62.660156 120.808594 90.320312 84.464844 128.832031 65.890625 C 154.492188 53.507812 182.855469 49.613281 210.847656 54.605469 C 213.507812 55.085938 215.28125 57.628906 214.808594 60.285156 C 214.332031 62.933594 211.769531 64.703125 209.128906 64.246094 C 183.171875 59.605469 156.878906 63.226562 133.082031 74.703125 C 97.371094 91.933594 71.71875 125.640625 64.464844 164.871094 C 64.167969 166.460938 63.132812 167.734375 61.773438 168.390625 " fill-opacity="1" fill-rule="nonzero"/><g clip-path="url(#095e87ae2c)"><path fill="#588157" d="M 198.964844 30.472656 L 201.59375 57.914062 L 183.664062 78.859375 L 248.667969 72.796875 L 198.964844 30.472656 " fill-opacity="1" fill-rule="nonzero"/></g><path fill="#588157" d="M 246.164062 309.113281 C 220.511719 321.488281 192.15625 325.394531 164.152344 320.402344 C 161.492188 319.925781 159.71875 317.382812 160.195312 314.722656 C 160.664062 312.066406 163.199219 310.300781 165.875 310.761719 C 191.832031 315.390625 218.125 311.773438 241.910156 300.300781 C 277.625 283.070312 303.273438 249.363281 310.535156 210.136719 C 311.027344 207.46875 313.582031 205.726562 316.238281 206.21875 C 318.894531 206.707031 320.65625 209.265625 320.164062 211.921875 C 312.339844 254.203125 284.675781 290.535156 246.164062 309.113281 " fill-opacity="1" fill-rule="nonzero"/><g clip-path="url(#0c138d9e2c)"><path fill="#588157" d="M 176.035156 344.53125 L 173.40625 317.089844 L 191.335938 296.144531 L 126.332031 302.207031 L 176.035156 344.53125 " fill-opacity="1" fill-rule="nonzero"/></g></svg>